<mxfile host="app.diagrams.net" agent="Mozilla/5.0 (Macintosh; Intel Mac OS X 10_15_7) AppleWebKit/537.36 (KHTML, like Gecko) Chrome/131.0.0.0 Safari/537.36" version="25.0.3" pages="3">
  <diagram name="Infrastructure" id="ys6RFwK9HlgiFBmV7xUC">
    <mxGraphModel dx="1570" dy="2091" grid="0" gridSize="10" guides="1" tooltips="1" connect="1" arrows="1" fold="1" page="1" pageScale="1" pageWidth="850" pageHeight="1100" background="#FFFFFF" math="0" shadow="0">
      <root>
        <mxCell id="0" />
        <mxCell id="1" parent="0" />
        <mxCell id="UWezN6xjTHgVV8BSWIIu-29" value="Helper Node" style="rounded=1;whiteSpace=wrap;html=1;fillColor=#6a00ff;strokeColor=#3700CC;fontColor=#ffffff;verticalAlign=top;fontFamily=Courier New;" parent="1" vertex="1">
          <mxGeometry x="5" y="-247" width="165" height="150" as="geometry" />
        </mxCell>
        <mxCell id="UWezN6xjTHgVV8BSWIIu-20" style="edgeStyle=orthogonalEdgeStyle;rounded=0;orthogonalLoop=1;jettySize=auto;html=1;exitX=0.003;exitY=0.403;exitDx=0;exitDy=0;endArrow=none;endFill=0;exitPerimeter=0;fontFamily=Courier New;" parent="1" target="UWezN6xjTHgVV8BSWIIu-14" edge="1">
          <mxGeometry relative="1" as="geometry">
            <mxPoint x="470.4949999999999" y="-452.99" as="sourcePoint" />
            <Array as="points" />
          </mxGeometry>
        </mxCell>
        <mxCell id="UWezN6xjTHgVV8BSWIIu-6" value="" style="rounded=1;whiteSpace=wrap;html=1;fillColor=#6a00ff;strokeColor=#3700CC;fontColor=#ffffff;fontFamily=Courier New;" parent="1" vertex="1">
          <mxGeometry x="472.5" y="-550" width="165" height="150" as="geometry" />
        </mxCell>
        <mxCell id="UWezN6xjTHgVV8BSWIIu-19" style="edgeStyle=orthogonalEdgeStyle;rounded=0;orthogonalLoop=1;jettySize=auto;html=1;exitX=-0.001;exitY=0.215;exitDx=0;exitDy=0;endArrow=none;endFill=0;exitPerimeter=0;fontFamily=Courier New;" parent="1" target="UWezN6xjTHgVV8BSWIIu-15" edge="1">
          <mxGeometry relative="1" as="geometry">
            <mxPoint x="469.83500000000004" y="-498.10999999999984" as="sourcePoint" />
          </mxGeometry>
        </mxCell>
        <mxCell id="UWezN6xjTHgVV8BSWIIu-13" value="" style="shape=image;verticalLabelPosition=bottom;labelBackgroundColor=default;verticalAlign=top;aspect=fixed;imageAspect=0;image=https://logos-world.net/wp-content/uploads/2023/06/Kubernetes-Logo.png;clipPath=inset(31.07% 0% 31.66% 0%);fontFamily=Courier New;" parent="1" vertex="1">
          <mxGeometry x="480" y="-536.9200000000001" width="150" height="31.5" as="geometry" />
        </mxCell>
        <mxCell id="UWezN6xjTHgVV8BSWIIu-14" value="" style="sketch=0;pointerEvents=1;shadow=0;dashed=0;html=1;strokeColor=none;fillColor=#505050;labelPosition=center;verticalLabelPosition=bottom;verticalAlign=top;outlineConnect=0;align=center;shape=mxgraph.office.devices.hard_disk;fontFamily=Courier New;" parent="1" vertex="1">
          <mxGeometry x="272.5" y="-473.28999999999996" width="30" height="40.5" as="geometry" />
        </mxCell>
        <mxCell id="UWezN6xjTHgVV8BSWIIu-26" style="edgeStyle=orthogonalEdgeStyle;rounded=0;orthogonalLoop=1;jettySize=auto;html=1;endArrow=none;endFill=0;curved=1;fontFamily=Courier New;dashed=1;" parent="1" source="UWezN6xjTHgVV8BSWIIu-15" target="UWezN6xjTHgVV8BSWIIu-24" edge="1">
          <mxGeometry relative="1" as="geometry">
            <Array as="points">
              <mxPoint x="168" y="-498" />
              <mxPoint x="168" y="-399" />
            </Array>
          </mxGeometry>
        </mxCell>
        <mxCell id="UWezN6xjTHgVV8BSWIIu-15" value="" style="sketch=0;pointerEvents=1;shadow=0;dashed=0;html=1;strokeColor=none;fillColor=#434445;aspect=fixed;labelPosition=center;verticalLabelPosition=bottom;verticalAlign=top;align=center;outlineConnect=0;shape=mxgraph.vvd.ethernet_port;fontFamily=Courier New;" parent="1" vertex="1">
          <mxGeometry x="270" y="-515.3299999999999" width="35" height="35" as="geometry" />
        </mxCell>
        <mxCell id="UWezN6xjTHgVV8BSWIIu-9" value="Node 1" style="image;points=[];aspect=fixed;html=1;align=center;shadow=0;dashed=0;image=img/lib/allied_telesis/computer_and_terminals/Server_Desktop.svg;fontFamily=Courier New;" parent="1" vertex="1">
          <mxGeometry x="355" y="-518.21" width="64.69" height="82" as="geometry" />
        </mxCell>
        <mxCell id="UWezN6xjTHgVV8BSWIIu-24" value="" style="verticalLabelPosition=bottom;sketch=0;aspect=fixed;html=1;verticalAlign=top;strokeColor=none;align=left;outlineConnect=0;shape=mxgraph.citrix.firewall;fontFamily=Courier New;labelBorderColor=none;" parent="1" vertex="1">
          <mxGeometry x="50" y="-446" width="75" height="93" as="geometry" />
        </mxCell>
        <mxCell id="UWezN6xjTHgVV8BSWIIu-28" style="edgeStyle=orthogonalEdgeStyle;rounded=0;orthogonalLoop=1;jettySize=auto;html=1;endArrow=none;endFill=0;curved=1;fontFamily=Courier New;" parent="1" source="UWezN6xjTHgVV8BSWIIu-29" target="UWezN6xjTHgVV8BSWIIu-24" edge="1">
          <mxGeometry relative="1" as="geometry">
            <mxPoint x="200" y="-412" as="sourcePoint" />
            <mxPoint x="135" y="-389" as="targetPoint" />
          </mxGeometry>
        </mxCell>
        <mxCell id="UWezN6xjTHgVV8BSWIIu-27" value="" style="shape=image;verticalLabelPosition=bottom;labelBackgroundColor=default;verticalAlign=top;aspect=fixed;imageAspect=0;image=https://blog.briancmoses.com/images/2021/tailscale/tailscale-logo-black-800.png;fontFamily=Courier New;" parent="1" vertex="1">
          <mxGeometry x="24" y="-163.32999999999998" width="137.5" height="44" as="geometry" />
        </mxCell>
        <mxCell id="_eA4tgvw_Bgz834lRvIM-1" style="edgeStyle=orthogonalEdgeStyle;rounded=0;orthogonalLoop=1;jettySize=auto;html=1;exitX=0.003;exitY=0.403;exitDx=0;exitDy=0;endArrow=none;endFill=0;exitPerimeter=0;fontFamily=Courier New;" parent="1" target="_eA4tgvw_Bgz834lRvIM-7" edge="1">
          <mxGeometry relative="1" as="geometry">
            <mxPoint x="472.9949999999999" y="-271.99" as="sourcePoint" />
            <Array as="points" />
          </mxGeometry>
        </mxCell>
        <mxCell id="-9JmjWMYMR3l9NsryELO-5" value="" style="edgeStyle=orthogonalEdgeStyle;rounded=0;orthogonalLoop=1;jettySize=auto;html=1;entryX=0.515;entryY=1.003;entryDx=0;entryDy=0;entryPerimeter=0;endArrow=none;endFill=0;" parent="1" source="_eA4tgvw_Bgz834lRvIM-2" target="UWezN6xjTHgVV8BSWIIu-6" edge="1">
          <mxGeometry relative="1" as="geometry">
            <mxPoint x="557" y="-399" as="targetPoint" />
          </mxGeometry>
        </mxCell>
        <mxCell id="_eA4tgvw_Bgz834lRvIM-2" value="" style="rounded=1;whiteSpace=wrap;html=1;fillColor=#6a00ff;strokeColor=#3700CC;fontColor=#ffffff;fontFamily=Courier New;" parent="1" vertex="1">
          <mxGeometry x="475" y="-369" width="165" height="150" as="geometry" />
        </mxCell>
        <mxCell id="_eA4tgvw_Bgz834lRvIM-3" style="edgeStyle=orthogonalEdgeStyle;rounded=0;orthogonalLoop=1;jettySize=auto;html=1;exitX=-0.001;exitY=0.215;exitDx=0;exitDy=0;endArrow=none;endFill=0;exitPerimeter=0;fontFamily=Courier New;" parent="1" target="_eA4tgvw_Bgz834lRvIM-8" edge="1">
          <mxGeometry relative="1" as="geometry">
            <mxPoint x="472.33500000000004" y="-317.10999999999984" as="sourcePoint" />
          </mxGeometry>
        </mxCell>
        <mxCell id="_eA4tgvw_Bgz834lRvIM-4" value="" style="shape=image;verticalLabelPosition=bottom;labelBackgroundColor=default;verticalAlign=top;aspect=fixed;imageAspect=0;image=https://upload.wikimedia.org/wikipedia/commons/thumb/8/8f/Cilium_Logo.svg/2560px-Cilium_Logo.svg.png;fontFamily=Courier New;" parent="1" vertex="1">
          <mxGeometry x="507.39666666666665" y="-311.41888888888894" width="100.22222222222221" height="37.83511111111111" as="geometry" />
        </mxCell>
        <mxCell id="_eA4tgvw_Bgz834lRvIM-5" value="" style="shape=image;verticalLabelPosition=bottom;labelBackgroundColor=default;verticalAlign=top;aspect=fixed;imageAspect=0;image=https://ceph.io/assets/bitmaps/Ceph_Logo_Standard_RGB_120411_fa.png;fontFamily=Courier New;" parent="1" vertex="1">
          <mxGeometry x="498.08000000000004" y="-273.58" width="118.85" height="54.58" as="geometry" />
        </mxCell>
        <mxCell id="_eA4tgvw_Bgz834lRvIM-6" value="" style="shape=image;verticalLabelPosition=bottom;labelBackgroundColor=default;verticalAlign=top;aspect=fixed;imageAspect=0;image=https://logos-world.net/wp-content/uploads/2023/06/Kubernetes-Logo.png;clipPath=inset(31.07% 0% 31.66% 0%);fontFamily=Courier New;" parent="1" vertex="1">
          <mxGeometry x="482.5" y="-355.9200000000001" width="150" height="31.5" as="geometry" />
        </mxCell>
        <mxCell id="_eA4tgvw_Bgz834lRvIM-7" value="" style="sketch=0;pointerEvents=1;shadow=0;dashed=0;html=1;strokeColor=none;fillColor=#505050;labelPosition=center;verticalLabelPosition=bottom;verticalAlign=top;outlineConnect=0;align=center;shape=mxgraph.office.devices.hard_disk;fontFamily=Courier New;" parent="1" vertex="1">
          <mxGeometry x="275" y="-292.28999999999996" width="30" height="40.5" as="geometry" />
        </mxCell>
        <mxCell id="_eA4tgvw_Bgz834lRvIM-8" value="" style="sketch=0;pointerEvents=1;shadow=0;dashed=0;html=1;strokeColor=none;fillColor=#434445;aspect=fixed;labelPosition=center;verticalLabelPosition=bottom;verticalAlign=top;align=center;outlineConnect=0;shape=mxgraph.vvd.ethernet_port;fontFamily=Courier New;" parent="1" vertex="1">
          <mxGeometry x="272.5" y="-334.3299999999999" width="35" height="35" as="geometry" />
        </mxCell>
        <mxCell id="_eA4tgvw_Bgz834lRvIM-9" value="Node 2" style="image;points=[];aspect=fixed;html=1;align=center;shadow=0;dashed=0;image=img/lib/allied_telesis/computer_and_terminals/Server_Desktop.svg;fontFamily=Courier New;" parent="1" vertex="1">
          <mxGeometry x="357.5" y="-337.21000000000004" width="64.69" height="82" as="geometry" />
        </mxCell>
        <mxCell id="_eA4tgvw_Bgz834lRvIM-10" style="edgeStyle=orthogonalEdgeStyle;rounded=0;orthogonalLoop=1;jettySize=auto;html=1;exitX=0.003;exitY=0.403;exitDx=0;exitDy=0;endArrow=none;endFill=0;exitPerimeter=0;fontFamily=Courier New;" parent="1" target="_eA4tgvw_Bgz834lRvIM-16" edge="1">
          <mxGeometry relative="1" as="geometry">
            <mxPoint x="470.4949999999999" y="-91.99000000000001" as="sourcePoint" />
            <Array as="points" />
          </mxGeometry>
        </mxCell>
        <mxCell id="-9JmjWMYMR3l9NsryELO-7" value="" style="edgeStyle=orthogonalEdgeStyle;rounded=0;orthogonalLoop=1;jettySize=auto;html=1;endArrow=none;endFill=0;" parent="1" source="_eA4tgvw_Bgz834lRvIM-11" target="_eA4tgvw_Bgz834lRvIM-5" edge="1">
          <mxGeometry relative="1" as="geometry" />
        </mxCell>
        <mxCell id="_eA4tgvw_Bgz834lRvIM-11" value="" style="rounded=1;whiteSpace=wrap;html=1;fillColor=#6a00ff;strokeColor=#3700CC;fontColor=#ffffff;fontFamily=Courier New;" parent="1" vertex="1">
          <mxGeometry x="474.51" y="-189" width="165" height="150" as="geometry" />
        </mxCell>
        <mxCell id="_eA4tgvw_Bgz834lRvIM-12" style="edgeStyle=orthogonalEdgeStyle;rounded=0;orthogonalLoop=1;jettySize=auto;html=1;exitX=-0.001;exitY=0.215;exitDx=0;exitDy=0;endArrow=none;endFill=0;exitPerimeter=0;fontFamily=Courier New;" parent="1" target="_eA4tgvw_Bgz834lRvIM-17" edge="1">
          <mxGeometry relative="1" as="geometry">
            <mxPoint x="469.83500000000004" y="-137.10999999999984" as="sourcePoint" />
          </mxGeometry>
        </mxCell>
        <mxCell id="_eA4tgvw_Bgz834lRvIM-13" value="" style="shape=image;verticalLabelPosition=bottom;labelBackgroundColor=default;verticalAlign=top;aspect=fixed;imageAspect=0;image=https://upload.wikimedia.org/wikipedia/commons/thumb/8/8f/Cilium_Logo.svg/2560px-Cilium_Logo.svg.png;fontFamily=Courier New;" parent="1" vertex="1">
          <mxGeometry x="504.89666666666665" y="-131.41888888888894" width="100.22222222222221" height="37.83511111111111" as="geometry" />
        </mxCell>
        <mxCell id="_eA4tgvw_Bgz834lRvIM-14" value="" style="shape=image;verticalLabelPosition=bottom;labelBackgroundColor=default;verticalAlign=top;aspect=fixed;imageAspect=0;image=https://ceph.io/assets/bitmaps/Ceph_Logo_Standard_RGB_120411_fa.png;fontFamily=Courier New;" parent="1" vertex="1">
          <mxGeometry x="495.58000000000004" y="-93.57999999999998" width="118.85" height="54.58" as="geometry" />
        </mxCell>
        <mxCell id="_eA4tgvw_Bgz834lRvIM-15" value="" style="shape=image;verticalLabelPosition=bottom;labelBackgroundColor=default;verticalAlign=top;aspect=fixed;imageAspect=0;image=https://logos-world.net/wp-content/uploads/2023/06/Kubernetes-Logo.png;clipPath=inset(31.07% 0% 31.66% 0%);fontFamily=Courier New;" parent="1" vertex="1">
          <mxGeometry x="480" y="-175.92000000000007" width="150" height="31.5" as="geometry" />
        </mxCell>
        <mxCell id="_eA4tgvw_Bgz834lRvIM-16" value="" style="sketch=0;pointerEvents=1;shadow=0;dashed=0;html=1;strokeColor=none;fillColor=#505050;labelPosition=center;verticalLabelPosition=bottom;verticalAlign=top;outlineConnect=0;align=center;shape=mxgraph.office.devices.hard_disk;fontFamily=Courier New;" parent="1" vertex="1">
          <mxGeometry x="272.5" y="-112.28999999999996" width="30" height="40.5" as="geometry" />
        </mxCell>
        <mxCell id="_eA4tgvw_Bgz834lRvIM-17" value="" style="sketch=0;pointerEvents=1;shadow=0;dashed=0;html=1;strokeColor=none;fillColor=#434445;aspect=fixed;labelPosition=center;verticalLabelPosition=bottom;verticalAlign=top;align=center;outlineConnect=0;shape=mxgraph.vvd.ethernet_port;fontFamily=Courier New;" parent="1" vertex="1">
          <mxGeometry x="270" y="-154.32999999999993" width="35" height="35" as="geometry" />
        </mxCell>
        <mxCell id="_eA4tgvw_Bgz834lRvIM-18" value="Node 3" style="image;points=[];aspect=fixed;html=1;align=center;shadow=0;dashed=0;image=img/lib/allied_telesis/computer_and_terminals/Server_Desktop.svg;fontFamily=Courier New;" parent="1" vertex="1">
          <mxGeometry x="355" y="-157.21000000000004" width="64.69" height="82" as="geometry" />
        </mxCell>
        <mxCell id="_eA4tgvw_Bgz834lRvIM-19" style="edgeStyle=orthogonalEdgeStyle;rounded=0;orthogonalLoop=1;jettySize=auto;html=1;endArrow=none;endFill=0;curved=1;fontFamily=Courier New;dashed=1;" parent="1" source="_eA4tgvw_Bgz834lRvIM-8" target="UWezN6xjTHgVV8BSWIIu-24" edge="1">
          <mxGeometry relative="1" as="geometry">
            <mxPoint x="280" y="-488" as="sourcePoint" />
            <mxPoint x="98" y="-436" as="targetPoint" />
            <Array as="points">
              <mxPoint x="199" y="-317" />
              <mxPoint x="199" y="-399" />
            </Array>
          </mxGeometry>
        </mxCell>
        <mxCell id="_eA4tgvw_Bgz834lRvIM-20" style="edgeStyle=orthogonalEdgeStyle;rounded=0;orthogonalLoop=1;jettySize=auto;html=1;endArrow=none;endFill=0;curved=1;fontFamily=Courier New;" parent="1" source="UWezN6xjTHgVV8BSWIIu-29" target="UWezN6xjTHgVV8BSWIIu-24" edge="1">
          <mxGeometry relative="1" as="geometry">
            <mxPoint x="280" y="-488" as="sourcePoint" />
            <mxPoint x="98" y="-436" as="targetPoint" />
          </mxGeometry>
        </mxCell>
        <mxCell id="_eA4tgvw_Bgz834lRvIM-25" value="&lt;h1 style=&quot;margin-top: 0px;&quot;&gt;Firewall&lt;/h1&gt;&lt;p&gt;10.0.0.0/16&lt;/p&gt;" style="text;html=1;whiteSpace=wrap;overflow=hidden;rounded=0;fontFamily=Courier New;" parent="1" vertex="1">
          <mxGeometry x="50" y="-536.9200000000001" width="180" height="73" as="geometry" />
        </mxCell>
        <mxCell id="_eA4tgvw_Bgz834lRvIM-27" value="" style="group" parent="1" vertex="1" connectable="0">
          <mxGeometry x="927" y="-550" width="165" height="150" as="geometry" />
        </mxCell>
        <mxCell id="_eA4tgvw_Bgz834lRvIM-22" value="Ceph S3 Bucket" style="rounded=1;whiteSpace=wrap;html=1;fillColor=#0050ef;strokeColor=#001DBC;fontColor=#ffffff;verticalAlign=top;fontFamily=Courier New;" parent="_eA4tgvw_Bgz834lRvIM-27" vertex="1">
          <mxGeometry width="165" height="150" as="geometry" />
        </mxCell>
        <mxCell id="_eA4tgvw_Bgz834lRvIM-26" value="" style="outlineConnect=0;dashed=0;verticalLabelPosition=bottom;verticalAlign=top;align=center;html=1;shape=mxgraph.aws3.bucket_with_objects;fillColor=#E05243;gradientColor=none;" parent="_eA4tgvw_Bgz834lRvIM-27" vertex="1">
          <mxGeometry x="52.5" y="46.460000000000036" width="60" height="61.5" as="geometry" />
        </mxCell>
        <mxCell id="_eA4tgvw_Bgz834lRvIM-31" value="" style="group" parent="1" vertex="1" connectable="0">
          <mxGeometry x="703" y="-550" width="165" height="150" as="geometry" />
        </mxCell>
        <mxCell id="_eA4tgvw_Bgz834lRvIM-32" value="Networking" style="rounded=1;whiteSpace=wrap;html=1;fillColor=#0050ef;strokeColor=#001DBC;fontColor=#ffffff;verticalAlign=top;fontFamily=Courier New;" parent="_eA4tgvw_Bgz834lRvIM-31" vertex="1">
          <mxGeometry width="165" height="150" as="geometry" />
        </mxCell>
        <mxCell id="UWezN6xjTHgVV8BSWIIu-4" value="" style="shape=image;verticalLabelPosition=bottom;labelBackgroundColor=default;verticalAlign=top;aspect=fixed;imageAspect=0;image=https://upload.wikimedia.org/wikipedia/commons/thumb/8/8f/Cilium_Logo.svg/2560px-Cilium_Logo.svg.png;fontFamily=Courier New;" parent="_eA4tgvw_Bgz834lRvIM-31" vertex="1">
          <mxGeometry x="32.38666666666654" y="95.17111111111109" width="100.22222222222221" height="37.83511111111111" as="geometry" />
        </mxCell>
        <mxCell id="_eA4tgvw_Bgz834lRvIM-34" value="" style="group" parent="1" vertex="1" connectable="0">
          <mxGeometry x="703" y="-369" width="165" height="150" as="geometry" />
        </mxCell>
        <mxCell id="_eA4tgvw_Bgz834lRvIM-35" value="Storage Replication" style="rounded=1;whiteSpace=wrap;html=1;fillColor=#0050ef;strokeColor=#001DBC;fontColor=#ffffff;verticalAlign=top;fontFamily=Courier New;" parent="_eA4tgvw_Bgz834lRvIM-34" vertex="1">
          <mxGeometry width="165" height="150" as="geometry" />
        </mxCell>
        <mxCell id="UWezN6xjTHgVV8BSWIIu-17" value="" style="shape=image;verticalLabelPosition=bottom;labelBackgroundColor=default;verticalAlign=top;aspect=fixed;imageAspect=0;image=https://ceph.io/assets/bitmaps/Ceph_Logo_Standard_RGB_120411_fa.png;fontFamily=Courier New;" parent="_eA4tgvw_Bgz834lRvIM-34" vertex="1">
          <mxGeometry x="18" y="77" width="118.85" height="54.58" as="geometry" />
        </mxCell>
        <mxCell id="_eA4tgvw_Bgz834lRvIM-45" value="" style="shape=image;verticalLabelPosition=bottom;labelBackgroundColor=default;verticalAlign=top;aspect=fixed;imageAspect=0;image=https://upload.wikimedia.org/wikipedia/commons/thumb/8/8f/Cilium_Logo.svg/2560px-Cilium_Logo.svg.png;fontFamily=Courier New;" parent="1" vertex="1">
          <mxGeometry x="507.39666666666665" y="-499.2488888888889" width="100.22222222222221" height="37.83511111111111" as="geometry" />
        </mxCell>
        <mxCell id="_eA4tgvw_Bgz834lRvIM-46" value="" style="shape=image;verticalLabelPosition=bottom;labelBackgroundColor=default;verticalAlign=top;aspect=fixed;imageAspect=0;image=https://ceph.io/assets/bitmaps/Ceph_Logo_Standard_RGB_120411_fa.png;fontFamily=Courier New;" parent="1" vertex="1">
          <mxGeometry x="498.08000000000004" y="-461.40999999999997" width="118.85" height="54.58" as="geometry" />
        </mxCell>
        <mxCell id="_eA4tgvw_Bgz834lRvIM-55" value="Metric Scraping" style="rounded=1;whiteSpace=wrap;html=1;fillColor=#0050ef;strokeColor=#001DBC;fontColor=#ffffff;verticalAlign=top;fontFamily=Courier New;" parent="1" vertex="1">
          <mxGeometry x="703" y="-191.21" width="165" height="150" as="geometry" />
        </mxCell>
        <mxCell id="_eA4tgvw_Bgz834lRvIM-57" value="" style="shape=image;verticalLabelPosition=bottom;labelBackgroundColor=default;verticalAlign=top;aspect=fixed;imageAspect=0;image=https://www.derdack.com/wp-content/uploads/sites/2/2021/09/prometheus-logo-3.png;" parent="1" vertex="1">
          <mxGeometry x="724.08" y="-112.29" width="122.85" height="64.29" as="geometry" />
        </mxCell>
        <mxCell id="_eA4tgvw_Bgz834lRvIM-58" value="Fleet-Telemetry" style="rounded=1;whiteSpace=wrap;html=1;fillColor=#0050ef;strokeColor=#001DBC;fontColor=#ffffff;verticalAlign=top;fontFamily=Courier New;" parent="1" vertex="1">
          <mxGeometry x="927" y="-191.21" width="165" height="150" as="geometry" />
        </mxCell>
        <mxCell id="_eA4tgvw_Bgz834lRvIM-48" value="Vizualization" style="rounded=1;whiteSpace=wrap;html=1;fillColor=#0050ef;strokeColor=#001DBC;fontColor=#ffffff;verticalAlign=top;fontFamily=Courier New;" parent="1" vertex="1">
          <mxGeometry x="928" y="-368" width="165" height="150" as="geometry" />
        </mxCell>
        <mxCell id="_eA4tgvw_Bgz834lRvIM-53" value="" style="shape=image;verticalLabelPosition=bottom;labelBackgroundColor=default;verticalAlign=top;aspect=fixed;imageAspect=0;image=https://miro.medium.com/v2/resize:fit:1400/1*YwJrXgJolwGeALuiDCGB6w.png;" parent="1" vertex="1">
          <mxGeometry x="952.5" y="-278.78" width="116" height="28.13" as="geometry" />
        </mxCell>
        <mxCell id="_eA4tgvw_Bgz834lRvIM-61" value="Kafka" style="rounded=1;whiteSpace=wrap;html=1;fillColor=#0050ef;strokeColor=#001DBC;fontColor=#ffffff;verticalAlign=top;fontFamily=Courier New;" parent="1" vertex="1">
          <mxGeometry x="1141" y="-550" width="165" height="150" as="geometry" />
        </mxCell>
        <mxCell id="_eA4tgvw_Bgz834lRvIM-59" value="" style="shape=image;verticalLabelPosition=bottom;labelBackgroundColor=default;verticalAlign=top;aspect=fixed;imageAspect=0;image=https://strimzi.io/assets/images/strimzi_logo.png;" parent="1" vertex="1">
          <mxGeometry x="1154.04" y="-453" width="138.93" height="36.29" as="geometry" />
        </mxCell>
        <mxCell id="_eA4tgvw_Bgz834lRvIM-63" value="Fleet-Telemetry-Consumer" style="rounded=1;whiteSpace=wrap;html=1;fillColor=#0050ef;strokeColor=#001DBC;fontColor=#ffffff;verticalAlign=top;fontFamily=Courier New;" parent="1" vertex="1">
          <mxGeometry x="1141" y="-367.5" width="165" height="150" as="geometry" />
        </mxCell>
        <mxCell id="_eA4tgvw_Bgz834lRvIM-65" value="GitOps" style="rounded=1;whiteSpace=wrap;html=1;fillColor=#0050ef;strokeColor=#001DBC;fontColor=#ffffff;verticalAlign=top;fontFamily=Courier New;" parent="1" vertex="1">
          <mxGeometry x="1141" y="-189" width="165" height="150" as="geometry" />
        </mxCell>
        <mxCell id="_eA4tgvw_Bgz834lRvIM-64" value="" style="shape=image;verticalLabelPosition=bottom;labelBackgroundColor=default;verticalAlign=top;aspect=fixed;imageAspect=0;image=https://miro.medium.com/v2/resize:fit:1400/1*LydFAwy_HJjw8lGCsi1Iqg.png;" parent="1" vertex="1">
          <mxGeometry x="1166.49" y="-100.93" width="114.04" height="52.93" as="geometry" />
        </mxCell>
        <mxCell id="-9JmjWMYMR3l9NsryELO-1" value="Cloudflared Tunnel" style="rounded=1;whiteSpace=wrap;html=1;fillColor=#0050ef;strokeColor=#001DBC;fontColor=#ffffff;verticalAlign=top;fontFamily=Courier New;" parent="1" vertex="1">
          <mxGeometry x="1345" y="-191.21" width="165" height="150" as="geometry" />
        </mxCell>
        <mxCell id="_eA4tgvw_Bgz834lRvIM-66" value="" style="shape=image;verticalLabelPosition=bottom;labelBackgroundColor=default;verticalAlign=top;aspect=fixed;imageAspect=0;image=https://upload.wikimedia.org/wikipedia/commons/thumb/4/4b/Cloudflare_Logo.svg/1200px-Cloudflare_Logo.svg.png;" parent="1" vertex="1">
          <mxGeometry x="1371.9" y="-100.93" width="111.2" height="36.79" as="geometry" />
        </mxCell>
        <mxCell id="-9JmjWMYMR3l9NsryELO-2" value="" style="edgeStyle=orthogonalEdgeStyle;rounded=0;orthogonalLoop=1;jettySize=auto;html=1;endArrow=none;endFill=0;curved=1;fontFamily=Courier New;dashed=1;" parent="1" source="_eA4tgvw_Bgz834lRvIM-17" target="UWezN6xjTHgVV8BSWIIu-24" edge="1">
          <mxGeometry relative="1" as="geometry">
            <mxPoint x="270" y="-137" as="sourcePoint" />
            <mxPoint x="88" y="-353" as="targetPoint" />
            <Array as="points">
              <mxPoint x="191" y="-137" />
              <mxPoint x="191" y="-399" />
            </Array>
          </mxGeometry>
        </mxCell>
      </root>
    </mxGraphModel>
  </diagram>
  <diagram id="KHKEF2A1Tvm7Cy0rTGgU" name="Tesla Infrastructure">
    <mxGraphModel dx="2529" dy="1166" grid="0" gridSize="10" guides="1" tooltips="1" connect="1" arrows="1" fold="1" page="0" pageScale="1" pageWidth="850" pageHeight="1100" background="#FFFFFF" math="0" shadow="0">
      <root>
        <mxCell id="0" />
        <mxCell id="1" parent="0" />
        <UserObject label="" link="https://upload.wikimedia.org/wikipedia/commons/9/94/Cloudflare_Logo.png" id="RjanMQ2V9d57OOc_mf5t-31">
          <mxCell style="rounded=1;whiteSpace=wrap;html=1;fillColor=#dae8fc;strokeColor=#6c8ebf;strokeWidth=13;align=left;labelBackgroundColor=none;fontFamily=Courier New;fontStyle=1;fontColor=#000000;" parent="1" vertex="1">
            <mxGeometry x="738" y="227" width="889" height="766" as="geometry" />
          </mxCell>
        </UserObject>
        <mxCell id="RjanMQ2V9d57OOc_mf5t-22" style="edgeStyle=orthogonalEdgeStyle;curved=1;rounded=0;orthogonalLoop=1;jettySize=auto;html=1;entryX=0;entryY=0.5;entryDx=0;entryDy=0;labelBackgroundColor=none;fontFamily=Courier New;fontStyle=1;fontColor=#000000;" parent="1" source="RjanMQ2V9d57OOc_mf5t-5" target="RjanMQ2V9d57OOc_mf5t-17" edge="1">
          <mxGeometry relative="1" as="geometry">
            <mxPoint x="500.5" y="839.28" as="targetPoint" />
          </mxGeometry>
        </mxCell>
        <mxCell id="rdMgGSpz5oarUFI3ftsN-7" style="edgeStyle=orthogonalEdgeStyle;rounded=0;orthogonalLoop=1;jettySize=auto;html=1;entryX=0;entryY=0.5;entryDx=0;entryDy=0;curved=1;fontFamily=Courier New;" parent="1" source="RjanMQ2V9d57OOc_mf5t-5" target="RjanMQ2V9d57OOc_mf5t-26" edge="1">
          <mxGeometry relative="1" as="geometry" />
        </mxCell>
        <mxCell id="rdMgGSpz5oarUFI3ftsN-8" style="edgeStyle=orthogonalEdgeStyle;rounded=0;orthogonalLoop=1;jettySize=auto;html=1;entryX=0;entryY=0.5;entryDx=0;entryDy=0;curved=1;fontFamily=Courier New;" parent="1" source="RjanMQ2V9d57OOc_mf5t-5" target="RjanMQ2V9d57OOc_mf5t-24" edge="1">
          <mxGeometry relative="1" as="geometry" />
        </mxCell>
        <mxCell id="RjanMQ2V9d57OOc_mf5t-5" value="Server 3" style="image;aspect=fixed;perimeter=ellipsePerimeter;html=1;align=center;shadow=0;dashed=0;spacingTop=3;image=img/lib/active_directory/generic_server.svg;labelBackgroundColor=none;fontFamily=Courier New;fontStyle=1;fontColor=#000000;" parent="1" vertex="1">
          <mxGeometry x="384.5" y="867.22" width="28.000000000000004" height="50" as="geometry" />
        </mxCell>
        <mxCell id="RjanMQ2V9d57OOc_mf5t-15" style="edgeStyle=orthogonalEdgeStyle;curved=1;rounded=0;orthogonalLoop=1;jettySize=auto;html=1;entryX=0;entryY=0.5;entryDx=0;entryDy=0;labelBackgroundColor=none;fontFamily=Courier New;fontStyle=1;fontColor=#000000;" parent="1" source="RjanMQ2V9d57OOc_mf5t-6" target="RjanMQ2V9d57OOc_mf5t-10" edge="1">
          <mxGeometry relative="1" as="geometry" />
        </mxCell>
        <mxCell id="RjanMQ2V9d57OOc_mf5t-16" style="edgeStyle=orthogonalEdgeStyle;curved=1;rounded=0;orthogonalLoop=1;jettySize=auto;html=1;entryX=0;entryY=0.5;entryDx=0;entryDy=0;labelBackgroundColor=none;fontFamily=Courier New;fontStyle=1;fontColor=#000000;" parent="1" source="RjanMQ2V9d57OOc_mf5t-6" target="RjanMQ2V9d57OOc_mf5t-5" edge="1">
          <mxGeometry relative="1" as="geometry" />
        </mxCell>
        <mxCell id="Og8IVxXF63fmr71o0o8v-45" style="edgeStyle=orthogonalEdgeStyle;curved=1;rounded=0;orthogonalLoop=1;jettySize=auto;html=1;exitX=1;exitY=0.5;exitDx=0;exitDy=0;entryX=0;entryY=0.5;entryDx=0;entryDy=0;fontFamily=Courier New;fontSize=12;fontColor=#000000;fontStyle=1;labelBackgroundColor=none;dashed=1;fillColor=#f8cecc;strokeColor=#b85450;" parent="1" source="RjanMQ2V9d57OOc_mf5t-24" target="Og8IVxXF63fmr71o0o8v-40" edge="1">
          <mxGeometry relative="1" as="geometry">
            <Array as="points">
              <mxPoint x="639" y="657" />
              <mxPoint x="639" y="750" />
            </Array>
          </mxGeometry>
        </mxCell>
        <mxCell id="Og8IVxXF63fmr71o0o8v-46" value="10.69.23.4:443" style="edgeLabel;html=1;align=center;verticalAlign=middle;resizable=0;points=[];strokeColor=default;fontFamily=Courier New;fontSize=12;fontColor=#000000;fontStyle=1;labelBackgroundColor=none;fillColor=default;" parent="Og8IVxXF63fmr71o0o8v-45" vertex="1" connectable="0">
          <mxGeometry x="0.723" y="2" relative="1" as="geometry">
            <mxPoint x="-58" y="-82" as="offset" />
          </mxGeometry>
        </mxCell>
        <mxCell id="rdMgGSpz5oarUFI3ftsN-1" value="BGP" style="edgeLabel;html=1;align=center;verticalAlign=middle;resizable=0;points=[];fontFamily=Courier New;fontStyle=1" parent="Og8IVxXF63fmr71o0o8v-45" vertex="1" connectable="0">
          <mxGeometry x="0.69" y="4" relative="1" as="geometry">
            <mxPoint x="-56" y="-98" as="offset" />
          </mxGeometry>
        </mxCell>
        <mxCell id="RjanMQ2V9d57OOc_mf5t-6" value="&lt;span id=&quot;docs-internal-guid-129c1558-7fff-5c4c-1586-b6c74b162c59&quot;&gt;&lt;p style=&quot;line-height:1.2;margin-top:0pt;margin-bottom:0pt;&quot; dir=&quot;ltr&quot;&gt;&lt;span style=&quot;font-size: 9pt; font-variant-numeric: normal; font-variant-east-asian: normal; font-variant-alternates: normal; font-variant-position: normal; vertical-align: baseline; white-space: pre-wrap;&quot;&gt;Router Spine&lt;/span&gt;&lt;span style=&quot;font-size: 9pt; font-variant-numeric: normal; font-variant-east-asian: normal; font-variant-alternates: normal; font-variant-position: normal; vertical-align: baseline; white-space: pre-wrap;&quot;&gt;&lt;br&gt;&lt;/span&gt;&lt;span style=&quot;font-size: 9pt; font-variant-numeric: normal; font-variant-east-asian: normal; font-variant-alternates: normal; font-variant-position: normal; vertical-align: baseline; white-space: pre-wrap;&quot;&gt;192.168.50.0/24&lt;/span&gt;&lt;/p&gt;&lt;div&gt;&lt;span style=&quot;font-size: 9pt; font-variant-numeric: normal; font-variant-east-asian: normal; font-variant-alternates: normal; font-variant-position: normal; vertical-align: baseline; white-space: pre-wrap;&quot;&gt;&lt;br&gt;&lt;/span&gt;&lt;/div&gt;&lt;/span&gt;" style="image;html=1;image=img/lib/clip_art/networking/Firewall_02_128x128.png;labelBackgroundColor=none;fontFamily=Courier New;fontStyle=1;fontColor=#000000;" parent="1" vertex="1">
          <mxGeometry x="226.5" y="627.03" width="63" height="63" as="geometry" />
        </mxCell>
        <mxCell id="RjanMQ2V9d57OOc_mf5t-11" style="edgeStyle=orthogonalEdgeStyle;rounded=0;orthogonalLoop=1;jettySize=auto;html=1;entryX=0;entryY=0.5;entryDx=0;entryDy=0;labelBackgroundColor=none;fontFamily=Courier New;fontStyle=1;fontColor=#000000;dashed=1;fillColor=#f8cecc;strokeColor=#b85450;" parent="1" source="RjanMQ2V9d57OOc_mf5t-7" target="RjanMQ2V9d57OOc_mf5t-6" edge="1">
          <mxGeometry relative="1" as="geometry" />
        </mxCell>
        <mxCell id="Og8IVxXF63fmr71o0o8v-2" style="edgeStyle=orthogonalEdgeStyle;curved=1;rounded=0;orthogonalLoop=1;jettySize=auto;html=1;exitX=0.5;exitY=0;exitDx=0;exitDy=0;labelBackgroundColor=none;fontFamily=Courier New;fontStyle=1;fontColor=#000000;fillColor=#d5e8d4;strokeColor=#82b366;entryX=0;entryY=0.75;entryDx=0;entryDy=0;" parent="1" source="RjanMQ2V9d57OOc_mf5t-7" target="Og8IVxXF63fmr71o0o8v-1" edge="1">
          <mxGeometry relative="1" as="geometry">
            <Array as="points">
              <mxPoint x="122" y="643" />
              <mxPoint x="122" y="395" />
            </Array>
          </mxGeometry>
        </mxCell>
        <mxCell id="Og8IVxXF63fmr71o0o8v-9" value="Secure Tunnel" style="edgeLabel;html=1;align=center;verticalAlign=middle;resizable=0;points=[];fontFamily=Courier New;fontStyle=1;fontColor=#000000;" parent="Og8IVxXF63fmr71o0o8v-2" vertex="1" connectable="0">
          <mxGeometry x="0.1907" y="-2" relative="1" as="geometry">
            <mxPoint x="206" y="80" as="offset" />
          </mxGeometry>
        </mxCell>
        <mxCell id="RjanMQ2V9d57OOc_mf5t-7" value="&lt;span style=&quot;white-space: pre-wrap;&quot; id=&quot;docs-internal-guid-129c1558-7fff-5c4c-1586-b6c74b162c59&quot;&gt;&lt;p style=&quot;line-height:1.2;margin-top:0pt;margin-bottom:0pt;&quot; dir=&quot;ltr&quot;&gt;&lt;font&gt;Internet&lt;/font&gt;&lt;/p&gt;&lt;/span&gt;" style="image;aspect=fixed;perimeter=ellipsePerimeter;html=1;align=center;shadow=0;dashed=0;spacingTop=3;image=img/lib/active_directory/internet_cloud.svg;labelBackgroundColor=none;fontStyle=1;fontColor=#000000;fontFamily=Courier New;" parent="1" vertex="1">
          <mxGeometry x="102.5" y="642.78" width="50" height="31.5" as="geometry" />
        </mxCell>
        <mxCell id="RjanMQ2V9d57OOc_mf5t-20" style="edgeStyle=orthogonalEdgeStyle;curved=1;rounded=0;orthogonalLoop=1;jettySize=auto;html=1;entryX=0;entryY=0.5;entryDx=0;entryDy=0;labelBackgroundColor=none;fontFamily=Courier New;fontStyle=1;fontColor=#000000;" parent="1" source="RjanMQ2V9d57OOc_mf5t-9" target="RjanMQ2V9d57OOc_mf5t-17" edge="1">
          <mxGeometry relative="1" as="geometry" />
        </mxCell>
        <mxCell id="RjanMQ2V9d57OOc_mf5t-9" value="Server 1" style="image;aspect=fixed;perimeter=ellipsePerimeter;html=1;align=center;shadow=0;dashed=0;spacingTop=3;image=img/lib/active_directory/generic_server.svg;labelBackgroundColor=none;fontFamily=Courier New;fontStyle=1;fontColor=#000000;" parent="1" vertex="1">
          <mxGeometry x="384.5" y="399.78" width="28.000000000000004" height="50" as="geometry" />
        </mxCell>
        <mxCell id="RjanMQ2V9d57OOc_mf5t-21" style="edgeStyle=orthogonalEdgeStyle;curved=1;rounded=0;orthogonalLoop=1;jettySize=auto;html=1;entryX=0;entryY=0.5;entryDx=0;entryDy=0;labelBackgroundColor=none;fontFamily=Courier New;fontStyle=1;fontColor=#000000;" parent="1" source="RjanMQ2V9d57OOc_mf5t-10" target="RjanMQ2V9d57OOc_mf5t-17" edge="1">
          <mxGeometry relative="1" as="geometry">
            <mxPoint x="500.5" y="658.03" as="targetPoint" />
          </mxGeometry>
        </mxCell>
        <mxCell id="RjanMQ2V9d57OOc_mf5t-10" value="Server 2" style="image;aspect=fixed;perimeter=ellipsePerimeter;html=1;align=center;shadow=0;dashed=0;spacingTop=3;image=img/lib/active_directory/generic_server.svg;labelBackgroundColor=none;fontFamily=Courier New;fontStyle=1;fontColor=#000000;" parent="1" vertex="1">
          <mxGeometry x="384.5" y="633.53" width="28.000000000000004" height="50" as="geometry" />
        </mxCell>
        <mxCell id="RjanMQ2V9d57OOc_mf5t-14" style="edgeStyle=orthogonalEdgeStyle;curved=1;rounded=0;orthogonalLoop=1;jettySize=auto;html=1;entryX=0;entryY=0.5;entryDx=0;entryDy=0;labelBackgroundColor=none;fontFamily=Courier New;fontStyle=1;fontColor=#000000;" parent="1" source="RjanMQ2V9d57OOc_mf5t-6" target="RjanMQ2V9d57OOc_mf5t-9" edge="1">
          <mxGeometry relative="1" as="geometry" />
        </mxCell>
        <mxCell id="RjanMQ2V9d57OOc_mf5t-27" style="edgeStyle=orthogonalEdgeStyle;curved=1;rounded=0;orthogonalLoop=1;jettySize=auto;html=1;entryX=0;entryY=0.5;entryDx=0;entryDy=0;labelBackgroundColor=none;fontFamily=Courier New;fontStyle=1;fontColor=#000000;exitX=1;exitY=0.5;exitDx=0;exitDy=0;" parent="1" source="RjanMQ2V9d57OOc_mf5t-9" target="RjanMQ2V9d57OOc_mf5t-24" edge="1">
          <mxGeometry relative="1" as="geometry" />
        </mxCell>
        <mxCell id="RjanMQ2V9d57OOc_mf5t-28" style="edgeStyle=orthogonalEdgeStyle;curved=1;rounded=0;orthogonalLoop=1;jettySize=auto;html=1;entryX=0;entryY=0.5;entryDx=0;entryDy=0;labelBackgroundColor=none;fontFamily=Courier New;fontStyle=1;fontColor=#000000;exitX=1;exitY=0.5;exitDx=0;exitDy=0;" parent="1" source="RjanMQ2V9d57OOc_mf5t-9" target="RjanMQ2V9d57OOc_mf5t-26" edge="1">
          <mxGeometry relative="1" as="geometry" />
        </mxCell>
        <mxCell id="RjanMQ2V9d57OOc_mf5t-17" value="K8s Api" style="shape=image;verticalLabelPosition=bottom;labelBackgroundColor=none;verticalAlign=top;aspect=fixed;imageAspect=0;image=https://upload.wikimedia.org/wikipedia/commons/3/39/Kubernetes_logo_without_workmark.svg;fontFamily=Courier New;fontStyle=1;fontColor=#000000;" parent="1" vertex="1">
          <mxGeometry x="522.5" y="561.65" width="50.47" height="49" as="geometry" />
        </mxCell>
        <mxCell id="RjanMQ2V9d57OOc_mf5t-26" value="ceph" style="shape=image;verticalLabelPosition=bottom;labelBackgroundColor=none;verticalAlign=top;aspect=fixed;imageAspect=0;image=https://static-00.iconduck.com/assets.00/ceph-icon-512x502-f58s9nfz.png;fontFamily=Courier New;fontStyle=1;fontColor=#000000;" parent="1" vertex="1">
          <mxGeometry x="525.3" y="711.4" width="44.88" height="44" as="geometry" />
        </mxCell>
        <mxCell id="Og8IVxXF63fmr71o0o8v-7" style="edgeStyle=orthogonalEdgeStyle;curved=1;rounded=0;orthogonalLoop=1;jettySize=auto;html=1;labelBackgroundColor=none;fontFamily=Courier New;fontStyle=1;fontColor=#000000;" parent="1" source="RjanMQ2V9d57OOc_mf5t-29" target="Og8IVxXF63fmr71o0o8v-5" edge="1">
          <mxGeometry relative="1" as="geometry" />
        </mxCell>
        <mxCell id="RjanMQ2V9d57OOc_mf5t-29" value="prometheus" style="shape=image;verticalLabelPosition=bottom;labelBackgroundColor=none;verticalAlign=top;aspect=fixed;imageAspect=0;image=https://static-00.iconduck.com/assets.00/prometheus-icon-511x512-1vmxbcxr.png;fontFamily=Courier New;fontStyle=1;fontColor=#000000;" parent="1" vertex="1">
          <mxGeometry x="958.5" y="539.25" width="49" height="49.1" as="geometry" />
        </mxCell>
        <mxCell id="Og8IVxXF63fmr71o0o8v-6" style="edgeStyle=orthogonalEdgeStyle;curved=1;rounded=0;orthogonalLoop=1;jettySize=auto;html=1;exitX=1;exitY=0.5;exitDx=0;exitDy=0;labelBackgroundColor=none;fontFamily=Courier New;fontStyle=1;fontColor=#000000;" parent="1" source="Og8IVxXF63fmr71o0o8v-1" target="Og8IVxXF63fmr71o0o8v-5" edge="1">
          <mxGeometry relative="1" as="geometry" />
        </mxCell>
        <mxCell id="Og8IVxXF63fmr71o0o8v-35" value="grafana.rajsingh.info" style="edgeLabel;html=1;align=center;verticalAlign=middle;resizable=0;points=[];strokeColor=default;fontFamily=Courier New;fontSize=12;fontColor=#000000;fontStyle=1;labelBackgroundColor=none;fillColor=default;" parent="Og8IVxXF63fmr71o0o8v-6" vertex="1" connectable="0">
          <mxGeometry x="0.8022" relative="1" as="geometry">
            <mxPoint x="121" y="61" as="offset" />
          </mxGeometry>
        </mxCell>
        <mxCell id="Og8IVxXF63fmr71o0o8v-13" style="edgeStyle=orthogonalEdgeStyle;curved=1;rounded=0;orthogonalLoop=1;jettySize=auto;html=1;exitX=1;exitY=0.5;exitDx=0;exitDy=0;fontFamily=Courier New;fontSize=12;fontColor=#000000;fontStyle=1;labelBackgroundColor=none;" parent="1" source="Og8IVxXF63fmr71o0o8v-1" target="Og8IVxXF63fmr71o0o8v-12" edge="1">
          <mxGeometry relative="1" as="geometry" />
        </mxCell>
        <mxCell id="Og8IVxXF63fmr71o0o8v-18" value="argocd.rajsingh.info" style="edgeLabel;html=1;align=center;verticalAlign=middle;resizable=0;points=[];strokeColor=default;fontFamily=Courier New;fontSize=12;fontColor=#000000;fontStyle=1;labelBackgroundColor=none;fillColor=default;" parent="Og8IVxXF63fmr71o0o8v-13" vertex="1" connectable="0">
          <mxGeometry x="0.3231" y="-1" relative="1" as="geometry">
            <mxPoint x="80" y="13" as="offset" />
          </mxGeometry>
        </mxCell>
        <mxCell id="Og8IVxXF63fmr71o0o8v-33" style="edgeStyle=orthogonalEdgeStyle;curved=1;rounded=0;orthogonalLoop=1;jettySize=auto;html=1;exitX=1;exitY=0.5;exitDx=0;exitDy=0;fontFamily=Courier New;fontSize=12;fontColor=#000000;fontStyle=1;labelBackgroundColor=none;entryX=0;entryY=0.5;entryDx=0;entryDy=0;" parent="1" source="Og8IVxXF63fmr71o0o8v-1" target="Og8IVxXF63fmr71o0o8v-30" edge="1">
          <mxGeometry relative="1" as="geometry" />
        </mxCell>
        <mxCell id="Og8IVxXF63fmr71o0o8v-34" value="tesla.rajsingh.info" style="edgeLabel;html=1;align=center;verticalAlign=middle;resizable=0;points=[];strokeColor=default;fontFamily=Courier New;fontSize=12;fontColor=#000000;fontStyle=1;labelBackgroundColor=none;fillColor=default;" parent="Og8IVxXF63fmr71o0o8v-33" vertex="1" connectable="0">
          <mxGeometry x="0.4648" y="-5" relative="1" as="geometry">
            <mxPoint x="29" y="-20" as="offset" />
          </mxGeometry>
        </mxCell>
        <mxCell id="Og8IVxXF63fmr71o0o8v-63" style="edgeStyle=orthogonalEdgeStyle;curved=1;rounded=0;orthogonalLoop=1;jettySize=auto;html=1;fontFamily=Courier New;fontSize=12;fontColor=#000000;fontStyle=1;labelBackgroundColor=none;entryX=0.5;entryY=0;entryDx=0;entryDy=0;" parent="1" source="Og8IVxXF63fmr71o0o8v-1" target="Og8IVxXF63fmr71o0o8v-61" edge="1">
          <mxGeometry relative="1" as="geometry" />
        </mxCell>
        <mxCell id="Og8IVxXF63fmr71o0o8v-1" value="cloudflared tunnel&#xa;" style="shape=image;verticalLabelPosition=bottom;labelBackgroundColor=none;verticalAlign=top;aspect=fixed;imageAspect=0;image=https://upload.wikimedia.org/wikipedia/commons/9/94/Cloudflare_Logo.png;whiteSpace=wrap;clipPath=inset(22.67% 0% 29.67% 0%);fontFamily=Courier New;fontStyle=1;fontColor=#000000;" parent="1" vertex="1">
          <mxGeometry x="779" y="372" width="65" height="30.983333333333334" as="geometry" />
        </mxCell>
        <mxCell id="Og8IVxXF63fmr71o0o8v-5" value="grafana" style="shape=image;verticalLabelPosition=bottom;labelBackgroundColor=none;verticalAlign=top;aspect=fixed;imageAspect=0;image=https://uxwing.com/wp-content/themes/uxwing/download/brands-and-social-media/grafana-icon.png;fontFamily=Courier New;fontStyle=1;fontColor=#000000;" parent="1" vertex="1">
          <mxGeometry x="1020" y="460.87" width="62" height="62" as="geometry" />
        </mxCell>
        <mxCell id="Og8IVxXF63fmr71o0o8v-8" value="Kubernetes Dataplane" style="text;html=1;align=left;verticalAlign=middle;whiteSpace=wrap;rounded=0;fontFamily=Courier New;fontStyle=1;fontColor=#000000;" parent="1" vertex="1">
          <mxGeometry x="847.5" y="225" width="219" height="30" as="geometry" />
        </mxCell>
        <mxCell id="Og8IVxXF63fmr71o0o8v-15" style="edgeStyle=orthogonalEdgeStyle;curved=1;rounded=0;orthogonalLoop=1;jettySize=auto;html=1;entryX=1;entryY=0.5;entryDx=0;entryDy=0;fontFamily=Courier New;fontSize=12;fontColor=#000000;fontStyle=1;labelBackgroundColor=none;" parent="1" source="Og8IVxXF63fmr71o0o8v-12" target="RjanMQ2V9d57OOc_mf5t-17" edge="1">
          <mxGeometry relative="1" as="geometry" />
        </mxCell>
        <mxCell id="Og8IVxXF63fmr71o0o8v-12" value="argocd" style="shape=image;verticalLabelPosition=bottom;labelBackgroundColor=none;verticalAlign=top;aspect=fixed;imageAspect=0;image=https://argo-cd.readthedocs.io/en/stable/assets/logo.png;fontFamily=Courier New;fontStyle=1" parent="1" vertex="1">
          <mxGeometry x="830" y="464" width="68" height="68" as="geometry" />
        </mxCell>
        <mxCell id="Og8IVxXF63fmr71o0o8v-32" value="" style="group;fontFamily=Courier New;" parent="1" vertex="1" connectable="0">
          <mxGeometry x="1330" y="274.99" width="221" height="149" as="geometry" />
        </mxCell>
        <mxCell id="Og8IVxXF63fmr71o0o8v-30" value="Tesla Public Key Webserver&lt;br&gt;&lt;br&gt;&lt;br&gt;&lt;br&gt;+" style="rounded=1;whiteSpace=wrap;html=1;strokeColor=default;align=center;verticalAlign=top;fontFamily=Courier New;fontSize=12;fontColor=#000000;fontStyle=1;labelBackgroundColor=none;fillColor=default;" parent="Og8IVxXF63fmr71o0o8v-32" vertex="1">
          <mxGeometry width="221" height="149" as="geometry" />
        </mxCell>
        <mxCell id="Og8IVxXF63fmr71o0o8v-14" value="public-key.pem" style="image;aspect=fixed;html=1;points=[];align=center;fontSize=12;image=img/lib/azure2/general/File.svg;strokeColor=default;verticalAlign=top;fontFamily=Courier New;fontColor=#000000;fontStyle=1;labelBackgroundColor=none;fillColor=default;" parent="Og8IVxXF63fmr71o0o8v-32" vertex="1">
          <mxGeometry x="138" y="37.44999999999993" width="50.4" height="62.1" as="geometry" />
        </mxCell>
        <mxCell id="Og8IVxXF63fmr71o0o8v-28" value="nginx" style="shape=image;verticalLabelPosition=bottom;labelBackgroundColor=default;verticalAlign=top;aspect=fixed;imageAspect=0;image=https://static-00.iconduck.com/assets.00/nginx-icon-444x512-0meva297.png;fontFamily=Courier New;" parent="Og8IVxXF63fmr71o0o8v-32" vertex="1">
          <mxGeometry x="21" y="37" width="54.63" height="63" as="geometry" />
        </mxCell>
        <mxCell id="Og8IVxXF63fmr71o0o8v-37" style="edgeStyle=orthogonalEdgeStyle;curved=1;rounded=0;orthogonalLoop=1;jettySize=auto;html=1;fontFamily=Courier New;fontSize=12;fontColor=#000000;fontStyle=1;labelBackgroundColor=none;dashed=1;fillColor=#f8cecc;strokeColor=#b85450;" parent="1" source="Og8IVxXF63fmr71o0o8v-36" target="RjanMQ2V9d57OOc_mf5t-7" edge="1">
          <mxGeometry relative="1" as="geometry" />
        </mxCell>
        <mxCell id="Og8IVxXF63fmr71o0o8v-38" value="fleet-telemetry.rajsingh.info:32484" style="edgeLabel;html=1;align=center;verticalAlign=middle;resizable=0;points=[];strokeColor=default;fontFamily=Courier New;fontSize=12;fontColor=#000000;fontStyle=1;labelBackgroundColor=none;fillColor=default;" parent="Og8IVxXF63fmr71o0o8v-37" vertex="1" connectable="0">
          <mxGeometry x="-0.0383" y="1" relative="1" as="geometry">
            <mxPoint x="1" y="11" as="offset" />
          </mxGeometry>
        </mxCell>
        <mxCell id="Og8IVxXF63fmr71o0o8v-36" value="Tesla&lt;div&gt;Model Y&lt;/div&gt;" style="shape=mxgraph.signs.transportation.car_4;html=1;pointerEvents=1;fillColor=#000000;strokeColor=none;verticalLabelPosition=bottom;verticalAlign=top;align=center;fontFamily=Courier New;fontSize=12;fontColor=#000000;fontStyle=1;labelBackgroundColor=none;" parent="1" vertex="1">
          <mxGeometry x="-223.5" y="671.97" width="48" height="39.43" as="geometry" />
        </mxCell>
        <mxCell id="Og8IVxXF63fmr71o0o8v-39" value="" style="group;fontFamily=Courier New;" parent="1" vertex="1" connectable="0">
          <mxGeometry x="786.61" y="701.99" width="233.39" height="175.89" as="geometry" />
        </mxCell>
        <mxCell id="Og8IVxXF63fmr71o0o8v-49" style="edgeStyle=orthogonalEdgeStyle;curved=1;rounded=0;orthogonalLoop=1;jettySize=auto;html=1;exitX=1;exitY=0.5;exitDx=0;exitDy=0;entryX=0;entryY=0.5;entryDx=0;entryDy=0;fontFamily=Courier New;fontSize=12;fontColor=#000000;fontStyle=1;labelBackgroundColor=none;" parent="Og8IVxXF63fmr71o0o8v-39" source="Og8IVxXF63fmr71o0o8v-40" target="Og8IVxXF63fmr71o0o8v-48" edge="1">
          <mxGeometry relative="1" as="geometry" />
        </mxCell>
        <mxCell id="Og8IVxXF63fmr71o0o8v-58" value="produce" style="edgeLabel;html=1;align=center;verticalAlign=middle;resizable=0;points=[];strokeColor=default;fontFamily=Courier New;fontSize=12;fontColor=#000000;fontStyle=1;labelBackgroundColor=none;fillColor=default;" parent="Og8IVxXF63fmr71o0o8v-49" vertex="1" connectable="0">
          <mxGeometry x="0.2791" y="2" relative="1" as="geometry">
            <mxPoint x="-32" y="9" as="offset" />
          </mxGeometry>
        </mxCell>
        <mxCell id="Og8IVxXF63fmr71o0o8v-40" value="Fleet&amp;nbsp;&lt;div&gt;Telemetry&lt;br&gt;&lt;br&gt;&lt;div&gt;&lt;br&gt;&lt;/div&gt;&lt;/div&gt;" style="rounded=1;whiteSpace=wrap;html=1;strokeColor=default;align=center;verticalAlign=top;fontFamily=Courier New;fontSize=12;fontColor=#000000;fontStyle=1;labelBackgroundColor=none;fillColor=default;" parent="Og8IVxXF63fmr71o0o8v-39" vertex="1">
          <mxGeometry width="112" height="97" as="geometry" />
        </mxCell>
        <mxCell id="Og8IVxXF63fmr71o0o8v-48" value="kafka 3" style="shape=image;verticalLabelPosition=bottom;labelBackgroundColor=none;verticalAlign=top;aspect=fixed;imageAspect=0;image=https://svn.apache.org/repos/asf/kafka/site/logos/originals/png/ICON%20-%20White%20on%20Transparent.png;fontFamily=Courier New;fontStyle=1" parent="Og8IVxXF63fmr71o0o8v-39" vertex="1">
          <mxGeometry x="171.06" y="112.55" width="57.89" height="57.89" as="geometry" />
        </mxCell>
        <mxCell id="Og8IVxXF63fmr71o0o8v-55" style="edgeStyle=orthogonalEdgeStyle;curved=1;rounded=0;orthogonalLoop=1;jettySize=auto;html=1;exitX=1;exitY=0.5;exitDx=0;exitDy=0;entryX=0;entryY=0.5;entryDx=0;entryDy=0;fontFamily=Courier New;fontSize=12;fontColor=#000000;fontStyle=1;labelBackgroundColor=none;" parent="1" source="Og8IVxXF63fmr71o0o8v-44" target="Og8IVxXF63fmr71o0o8v-52" edge="1">
          <mxGeometry relative="1" as="geometry" />
        </mxCell>
        <mxCell id="Og8IVxXF63fmr71o0o8v-44" value="kafka 1" style="shape=image;verticalLabelPosition=bottom;labelBackgroundColor=none;verticalAlign=top;aspect=fixed;imageAspect=0;image=https://svn.apache.org/repos/asf/kafka/site/logos/originals/png/ICON%20-%20White%20on%20Transparent.png;fontFamily=Courier New;fontStyle=1" parent="1" vertex="1">
          <mxGeometry x="954.06" y="628.55" width="57.89" height="57.89" as="geometry" />
        </mxCell>
        <mxCell id="Og8IVxXF63fmr71o0o8v-54" style="edgeStyle=orthogonalEdgeStyle;curved=1;rounded=0;orthogonalLoop=1;jettySize=auto;html=1;exitX=1;exitY=0.5;exitDx=0;exitDy=0;entryX=0;entryY=0.5;entryDx=0;entryDy=0;fontFamily=Courier New;fontSize=12;fontColor=#000000;fontStyle=1;labelBackgroundColor=none;" parent="1" source="Og8IVxXF63fmr71o0o8v-47" target="Og8IVxXF63fmr71o0o8v-52" edge="1">
          <mxGeometry relative="1" as="geometry" />
        </mxCell>
        <mxCell id="Og8IVxXF63fmr71o0o8v-47" value="kafka 2" style="shape=image;verticalLabelPosition=bottom;labelBackgroundColor=none;verticalAlign=top;aspect=fixed;imageAspect=0;image=https://svn.apache.org/repos/asf/kafka/site/logos/originals/png/ICON%20-%20White%20on%20Transparent.png;fontFamily=Courier New;fontStyle=1" parent="1" vertex="1">
          <mxGeometry x="954.06" y="721.55" width="57.89" height="57.89" as="geometry" />
        </mxCell>
        <mxCell id="Og8IVxXF63fmr71o0o8v-50" style="edgeStyle=orthogonalEdgeStyle;curved=1;rounded=0;orthogonalLoop=1;jettySize=auto;html=1;exitX=1;exitY=0.5;exitDx=0;exitDy=0;entryX=0;entryY=0.5;entryDx=0;entryDy=0;fontFamily=Courier New;fontSize=12;fontColor=#000000;fontStyle=1;labelBackgroundColor=none;" parent="1" source="Og8IVxXF63fmr71o0o8v-40" target="Og8IVxXF63fmr71o0o8v-47" edge="1">
          <mxGeometry relative="1" as="geometry" />
        </mxCell>
        <mxCell id="Og8IVxXF63fmr71o0o8v-51" style="edgeStyle=orthogonalEdgeStyle;curved=1;rounded=0;orthogonalLoop=1;jettySize=auto;html=1;exitX=1;exitY=0.5;exitDx=0;exitDy=0;entryX=0;entryY=0.5;entryDx=0;entryDy=0;fontFamily=Courier New;fontSize=12;fontColor=#000000;fontStyle=1;labelBackgroundColor=none;" parent="1" source="Og8IVxXF63fmr71o0o8v-40" target="Og8IVxXF63fmr71o0o8v-44" edge="1">
          <mxGeometry relative="1" as="geometry" />
        </mxCell>
        <mxCell id="Og8IVxXF63fmr71o0o8v-56" style="edgeStyle=orthogonalEdgeStyle;curved=1;rounded=0;orthogonalLoop=1;jettySize=auto;html=1;entryX=1;entryY=0.5;entryDx=0;entryDy=0;fontFamily=Courier New;fontSize=12;fontColor=#000000;fontStyle=1;labelBackgroundColor=none;exitX=0.5;exitY=0;exitDx=0;exitDy=0;" parent="1" source="Og8IVxXF63fmr71o0o8v-52" target="RjanMQ2V9d57OOc_mf5t-29" edge="1">
          <mxGeometry relative="1" as="geometry" />
        </mxCell>
        <mxCell id="Og8IVxXF63fmr71o0o8v-57" value="export metrics" style="edgeLabel;html=1;align=center;verticalAlign=middle;resizable=0;points=[];strokeColor=default;fontFamily=Courier New;fontSize=12;fontColor=#000000;fontStyle=1;labelBackgroundColor=none;fillColor=default;" parent="Og8IVxXF63fmr71o0o8v-56" vertex="1" connectable="0">
          <mxGeometry x="-0.8191" y="4" relative="1" as="geometry">
            <mxPoint x="60" y="6" as="offset" />
          </mxGeometry>
        </mxCell>
        <mxCell id="Og8IVxXF63fmr71o0o8v-52" value="Fleet&amp;nbsp;&lt;div&gt;Telemetry Consumer&lt;/div&gt;" style="rounded=1;whiteSpace=wrap;html=1;strokeColor=default;align=center;verticalAlign=top;fontFamily=Courier New;fontSize=12;fontColor=#000000;fontStyle=1;labelBackgroundColor=none;fillColor=default;" parent="1" vertex="1">
          <mxGeometry x="1111" y="701.99" width="112" height="97" as="geometry" />
        </mxCell>
        <mxCell id="Og8IVxXF63fmr71o0o8v-53" style="edgeStyle=orthogonalEdgeStyle;curved=1;rounded=0;orthogonalLoop=1;jettySize=auto;html=1;entryX=0;entryY=0.5;entryDx=0;entryDy=0;fontFamily=Courier New;fontSize=12;fontColor=#000000;fontStyle=1;labelBackgroundColor=none;" parent="1" source="Og8IVxXF63fmr71o0o8v-48" target="Og8IVxXF63fmr71o0o8v-52" edge="1">
          <mxGeometry relative="1" as="geometry" />
        </mxCell>
        <mxCell id="Og8IVxXF63fmr71o0o8v-59" value="" style="edgeLabel;html=1;align=center;verticalAlign=middle;resizable=0;points=[];strokeColor=default;fontFamily=Courier New;fontSize=12;fontColor=#000000;fontStyle=1;labelBackgroundColor=none;fillColor=default;" parent="Og8IVxXF63fmr71o0o8v-53" vertex="1" connectable="0">
          <mxGeometry x="-0.1101" y="3" relative="1" as="geometry">
            <mxPoint x="41" y="16" as="offset" />
          </mxGeometry>
        </mxCell>
        <mxCell id="Og8IVxXF63fmr71o0o8v-60" value="consume" style="edgeLabel;html=1;align=center;verticalAlign=middle;resizable=0;points=[];strokeColor=default;fontFamily=Courier New;fontSize=12;fontColor=#000000;fontStyle=1;labelBackgroundColor=none;fillColor=default;" parent="Og8IVxXF63fmr71o0o8v-53" vertex="1" connectable="0">
          <mxGeometry x="-0.1361" y="1" relative="1" as="geometry">
            <mxPoint x="27" y="15" as="offset" />
          </mxGeometry>
        </mxCell>
        <mxCell id="Og8IVxXF63fmr71o0o8v-68" style="edgeStyle=orthogonalEdgeStyle;curved=1;rounded=0;orthogonalLoop=1;jettySize=auto;html=1;fontFamily=Courier New;fontSize=12;fontColor=#000000;fontStyle=1;labelBackgroundColor=none;startArrow=classic;startFill=1;" parent="1" source="Og8IVxXF63fmr71o0o8v-61" target="Og8IVxXF63fmr71o0o8v-67" edge="1">
          <mxGeometry relative="1" as="geometry" />
        </mxCell>
        <mxCell id="Og8IVxXF63fmr71o0o8v-61" value="Fleet&amp;nbsp;&lt;div&gt;Manager&lt;/div&gt;" style="rounded=1;whiteSpace=wrap;html=1;strokeColor=default;align=center;verticalAlign=top;fontFamily=Courier New;fontSize=12;fontColor=#000000;fontStyle=1;labelBackgroundColor=none;fillColor=default;" parent="1" vertex="1">
          <mxGeometry x="1305" y="701.99" width="112" height="97" as="geometry" />
        </mxCell>
        <mxCell id="Og8IVxXF63fmr71o0o8v-64" value="fleet-manager.rajsingh.info" style="edgeLabel;html=1;align=center;verticalAlign=middle;resizable=0;points=[];strokeColor=default;fontFamily=Courier New;fontSize=12;fontColor=#000000;fontStyle=1;labelBackgroundColor=none;fillColor=default;" parent="1" vertex="1" connectable="0">
          <mxGeometry x="1467.002105298384" y="682.0047039288977" as="geometry" />
        </mxCell>
        <mxCell id="Og8IVxXF63fmr71o0o8v-65" value="S3 Bucket" style="outlineConnect=0;dashed=0;verticalLabelPosition=bottom;verticalAlign=top;align=center;html=1;shape=mxgraph.aws3.bucket;fillColor=#E05243;gradientColor=none;strokeColor=default;fontFamily=Courier New;fontSize=12;fontColor=#000000;fontStyle=1;labelBackgroundColor=none;" parent="1" vertex="1">
          <mxGeometry x="1137" y="839" width="60" height="61.5" as="geometry" />
        </mxCell>
        <mxCell id="Og8IVxXF63fmr71o0o8v-66" style="edgeStyle=orthogonalEdgeStyle;curved=1;rounded=0;orthogonalLoop=1;jettySize=auto;html=1;exitX=0.5;exitY=1;exitDx=0;exitDy=0;entryX=0.5;entryY=0;entryDx=0;entryDy=0;entryPerimeter=0;fontFamily=Courier New;fontSize=12;fontColor=#000000;fontStyle=1;labelBackgroundColor=none;" parent="1" source="Og8IVxXF63fmr71o0o8v-52" target="Og8IVxXF63fmr71o0o8v-65" edge="1">
          <mxGeometry relative="1" as="geometry" />
        </mxCell>
        <mxCell id="Og8IVxXF63fmr71o0o8v-67" value="Postgres" style="shape=image;verticalLabelPosition=bottom;labelBackgroundColor=none;verticalAlign=top;aspect=fixed;imageAspect=0;image=https://upload.wikimedia.org/wikipedia/commons/thumb/2/29/Postgresql_elephant.svg/1985px-Postgresql_elephant.svg.png;fontFamily=Courier New;fontStyle=1" parent="1" vertex="1">
          <mxGeometry x="1324.14" y="831.75" width="73.72" height="76" as="geometry" />
        </mxCell>
        <mxCell id="Og8IVxXF63fmr71o0o8v-69" style="edgeStyle=orthogonalEdgeStyle;curved=1;rounded=0;orthogonalLoop=1;jettySize=auto;html=1;exitX=0;exitY=0.5;exitDx=0;exitDy=0;entryX=0.94;entryY=0.5;entryDx=0;entryDy=0;entryPerimeter=0;fontFamily=Courier New;fontSize=12;fontColor=#000000;fontStyle=1;labelBackgroundColor=none;startArrow=classic;startFill=1;endArrow=none;endFill=0;" parent="1" source="Og8IVxXF63fmr71o0o8v-61" target="Og8IVxXF63fmr71o0o8v-65" edge="1">
          <mxGeometry relative="1" as="geometry">
            <Array as="points">
              <mxPoint x="1268" y="751" />
              <mxPoint x="1268" y="870" />
            </Array>
          </mxGeometry>
        </mxCell>
        <mxCell id="rdMgGSpz5oarUFI3ftsN-2" style="edgeStyle=orthogonalEdgeStyle;curved=1;rounded=0;orthogonalLoop=1;jettySize=auto;html=1;labelBackgroundColor=none;fontFamily=Courier New;fontStyle=1;fontColor=#000000;" parent="1" target="RjanMQ2V9d57OOc_mf5t-24" edge="1">
          <mxGeometry relative="1" as="geometry">
            <mxPoint x="411.5" y="656.78" as="sourcePoint" />
            <mxPoint x="535.5" y="669.78" as="targetPoint" />
          </mxGeometry>
        </mxCell>
        <mxCell id="rdMgGSpz5oarUFI3ftsN-3" style="edgeStyle=orthogonalEdgeStyle;curved=1;rounded=0;orthogonalLoop=1;jettySize=auto;html=1;labelBackgroundColor=none;fontFamily=Courier New;fontStyle=1;fontColor=#000000;exitX=1;exitY=0.5;exitDx=0;exitDy=0;entryX=0;entryY=0.5;entryDx=0;entryDy=0;" parent="1" source="RjanMQ2V9d57OOc_mf5t-10" target="RjanMQ2V9d57OOc_mf5t-26" edge="1">
          <mxGeometry relative="1" as="geometry">
            <mxPoint x="422.5" y="434.78" as="sourcePoint" />
            <mxPoint x="535.5" y="743.78" as="targetPoint" />
          </mxGeometry>
        </mxCell>
        <mxCell id="rdMgGSpz5oarUFI3ftsN-4" value="" style="edgeStyle=orthogonalEdgeStyle;curved=1;rounded=0;orthogonalLoop=1;jettySize=auto;html=1;exitX=1;exitY=0.5;exitDx=0;exitDy=0;entryX=0;entryY=0.5;entryDx=0;entryDy=0;fontFamily=Courier New;fontSize=12;fontColor=#000000;fontStyle=1;labelBackgroundColor=none;dashed=1;fillColor=#f8cecc;strokeColor=#b85450;" parent="1" source="RjanMQ2V9d57OOc_mf5t-6" target="RjanMQ2V9d57OOc_mf5t-24" edge="1">
          <mxGeometry relative="1" as="geometry">
            <mxPoint x="289.5" y="658.78" as="sourcePoint" />
            <mxPoint x="788.5" y="838.78" as="targetPoint" />
            <Array as="points" />
          </mxGeometry>
        </mxCell>
        <mxCell id="RjanMQ2V9d57OOc_mf5t-24" value="cilium" style="shape=image;verticalLabelPosition=bottom;labelBackgroundColor=none;verticalAlign=top;aspect=fixed;imageAspect=0;image=https://sue.eu/wp-content/uploads/sites/6/2022/07/cilium-logo-920x920-sue-v02.png;clipPath=inset(21.33% 22% 22% 21.33%);fontFamily=Courier New;fontStyle=1;fontColor=#000000;" parent="1" vertex="1">
          <mxGeometry x="525.1800000000001" y="634.78" width="45" height="45" as="geometry" />
        </mxCell>
        <mxCell id="rdMgGSpz5oarUFI3ftsN-9" style="edgeStyle=orthogonalEdgeStyle;rounded=0;orthogonalLoop=1;jettySize=auto;html=1;exitX=1;exitY=0.5;exitDx=0;exitDy=0;curved=1;entryX=0.06;entryY=0.5;entryDx=0;entryDy=0;entryPerimeter=0;fontFamily=Courier New;" parent="1" source="RjanMQ2V9d57OOc_mf5t-26" target="Og8IVxXF63fmr71o0o8v-65" edge="1">
          <mxGeometry relative="1" as="geometry">
            <mxPoint x="600" y="930" as="targetPoint" />
            <Array as="points">
              <mxPoint x="626" y="733" />
              <mxPoint x="626" y="870" />
            </Array>
          </mxGeometry>
        </mxCell>
        <mxCell id="rdMgGSpz5oarUFI3ftsN-13" style="edgeStyle=orthogonalEdgeStyle;rounded=0;orthogonalLoop=1;jettySize=auto;html=1;fillColor=#d5e8d4;strokeColor=#82b366;curved=1;fontFamily=Courier New;" parent="1" source="rdMgGSpz5oarUFI3ftsN-12" target="RjanMQ2V9d57OOc_mf5t-7" edge="1">
          <mxGeometry relative="1" as="geometry" />
        </mxCell>
        <mxCell id="rdMgGSpz5oarUFI3ftsN-12" value="User" style="html=1;whiteSpace=wrap;strokeColor=none;fillColor=#0079D6;labelPosition=center;verticalLabelPosition=middle;verticalAlign=top;align=center;fontSize=12;outlineConnect=0;spacingTop=-6;fontColor=#FFFFFF;sketch=0;shape=mxgraph.sitemap.user;fontFamily=Courier New;" parent="1" vertex="1">
          <mxGeometry x="-235" y="581.78" width="71" height="71" as="geometry" />
        </mxCell>
        <mxCell id="VO6xYfiG9TMb9eWxlXBw-1" style="edgeStyle=orthogonalEdgeStyle;rounded=0;orthogonalLoop=1;jettySize=auto;html=1;entryX=0;entryY=0.5;entryDx=0;entryDy=0;curved=1;" parent="1" source="Og8IVxXF63fmr71o0o8v-40" target="RjanMQ2V9d57OOc_mf5t-29" edge="1">
          <mxGeometry relative="1" as="geometry" />
        </mxCell>
        <mxCell id="HDcSU1aHTkywWHotvcpH-3" style="edgeStyle=orthogonalEdgeStyle;rounded=0;orthogonalLoop=1;jettySize=auto;html=1;" edge="1" parent="1" source="HDcSU1aHTkywWHotvcpH-1" target="HDcSU1aHTkywWHotvcpH-2">
          <mxGeometry relative="1" as="geometry" />
        </mxCell>
        <mxCell id="HDcSU1aHTkywWHotvcpH-1" value="Admin" style="html=1;whiteSpace=wrap;strokeColor=none;fillColor=#FF3333;labelPosition=center;verticalLabelPosition=middle;verticalAlign=top;align=center;fontSize=12;outlineConnect=0;spacingTop=-6;fontColor=#FFFFFF;sketch=0;shape=mxgraph.sitemap.user;fontFamily=Courier New;" vertex="1" parent="1">
          <mxGeometry x="-235" y="452.03" width="71" height="71" as="geometry" />
        </mxCell>
        <mxCell id="HDcSU1aHTkywWHotvcpH-4" style="edgeStyle=orthogonalEdgeStyle;rounded=0;orthogonalLoop=1;jettySize=auto;html=1;curved=1;strokeColor=#0066CC;" edge="1" parent="1" source="HDcSU1aHTkywWHotvcpH-2" target="RjanMQ2V9d57OOc_mf5t-7">
          <mxGeometry relative="1" as="geometry" />
        </mxCell>
        <mxCell id="HDcSU1aHTkywWHotvcpH-2" value="" style="shape=image;verticalLabelPosition=bottom;labelBackgroundColor=default;verticalAlign=top;aspect=fixed;imageAspect=0;image=https://developer.asustor.com/uploadIcons/0020_999_1673598004_tailscale_native_icon_256.png;" vertex="1" parent="1">
          <mxGeometry x="-109.5" y="452.03" width="70" height="70" as="geometry" />
        </mxCell>
        <mxCell id="i2sjMU-Ciq7Id2oyWDNk-6" style="edgeStyle=orthogonalEdgeStyle;rounded=0;orthogonalLoop=1;jettySize=auto;html=1;entryX=0.5;entryY=0;entryDx=0;entryDy=0;curved=1;exitX=0;exitY=0.5;exitDx=0;exitDy=0;strokeColor=#0066CC;" edge="1" parent="1" source="HDcSU1aHTkywWHotvcpH-5" target="RjanMQ2V9d57OOc_mf5t-7">
          <mxGeometry relative="1" as="geometry">
            <Array as="points">
              <mxPoint x="857" y="255" />
              <mxPoint x="128" y="255" />
            </Array>
          </mxGeometry>
        </mxCell>
        <mxCell id="HDcSU1aHTkywWHotvcpH-5" value="" style="shape=image;verticalLabelPosition=bottom;labelBackgroundColor=default;verticalAlign=top;aspect=fixed;imageAspect=0;image=https://developer.asustor.com/uploadIcons/0020_999_1673598004_tailscale_native_icon_256.png;fillColor=default;" vertex="1" parent="1">
          <mxGeometry x="857" y="264" width="70" height="70" as="geometry" />
        </mxCell>
        <mxCell id="HDcSU1aHTkywWHotvcpH-9" value="Private Tunnel" style="edgeLabel;html=1;align=center;verticalAlign=middle;resizable=0;points=[];fontFamily=Courier New;fontStyle=1;fontColor=#000000;" vertex="1" connectable="0" parent="1">
          <mxGeometry x="659" y="278" as="geometry" />
        </mxCell>
        <mxCell id="HDcSU1aHTkywWHotvcpH-12" value="Tailscale" style="edgeLabel;html=1;align=center;verticalAlign=middle;resizable=0;points=[];fontFamily=Courier New;fontStyle=1" vertex="1" connectable="0" parent="1">
          <mxGeometry x="688.9996695613586" y="559.0042077227117" as="geometry">
            <mxPoint x="204" y="-217" as="offset" />
          </mxGeometry>
        </mxCell>
        <mxCell id="i2sjMU-Ciq7Id2oyWDNk-5" style="edgeStyle=orthogonalEdgeStyle;rounded=0;orthogonalLoop=1;jettySize=auto;html=1;" edge="1" parent="1" source="i2sjMU-Ciq7Id2oyWDNk-1" target="i2sjMU-Ciq7Id2oyWDNk-2">
          <mxGeometry relative="1" as="geometry" />
        </mxCell>
        <mxCell id="i2sjMU-Ciq7Id2oyWDNk-1" value="Management&amp;nbsp;&lt;br&gt;Server" style="image;aspect=fixed;perimeter=ellipsePerimeter;html=1;align=center;shadow=0;dashed=0;spacingTop=3;image=img/lib/active_directory/generic_server.svg;labelBackgroundColor=none;fontFamily=Courier New;fontStyle=1;fontColor=#000000;" vertex="1" parent="1">
          <mxGeometry x="-209.5" y="312.78" width="28.000000000000004" height="50" as="geometry" />
        </mxCell>
        <mxCell id="i2sjMU-Ciq7Id2oyWDNk-4" style="edgeStyle=orthogonalEdgeStyle;rounded=0;orthogonalLoop=1;jettySize=auto;html=1;entryX=0.5;entryY=0;entryDx=0;entryDy=0;curved=1;strokeColor=#0066CC;" edge="1" parent="1" source="i2sjMU-Ciq7Id2oyWDNk-2" target="RjanMQ2V9d57OOc_mf5t-7">
          <mxGeometry relative="1" as="geometry" />
        </mxCell>
        <mxCell id="i2sjMU-Ciq7Id2oyWDNk-2" value="" style="shape=image;verticalLabelPosition=bottom;labelBackgroundColor=default;verticalAlign=top;aspect=fixed;imageAspect=0;image=https://developer.asustor.com/uploadIcons/0020_999_1673598004_tailscale_native_icon_256.png;" vertex="1" parent="1">
          <mxGeometry x="-105.5" y="302.78" width="70" height="70" as="geometry" />
        </mxCell>
      </root>
    </mxGraphModel>
  </diagram>
  <diagram id="Gl6wnszyP8ZenQI0uooN" name="ICONS">
    <mxGraphModel dx="824" dy="471" grid="0" gridSize="10" guides="1" tooltips="1" connect="1" arrows="1" fold="1" page="1" pageScale="1" pageWidth="850" pageHeight="1100" math="0" shadow="0">
      <root>
        <mxCell id="0" />
        <mxCell id="1" parent="0" />
        <UserObject label="&lt;b style=&quot;font-weight:normal;&quot; id=&quot;docs-internal-guid-0e3050be-7fff-231c-c312-32665a609f63&quot;&gt;&lt;img width=&quot;62px;&quot; height=&quot;62px;&quot; src=&quot;https://lh7-rt.googleusercontent.com/slidesz/AGV_vUeJueVCOZ5JnHkxYxPvzbkSMP7hjLwl2-Y8B2QmJCEdWRNBiArMX4JWd2kuLswTsISkdK6dD8SNYzqdat8-RmzDeEhMzpYpoH0GddjoHM3OktdNluofBbSYxSJJ-b1Tv8vugKUpqw8MRivs7_2FN-Caxf9vN109=s2048?key=gycgC9ebE3ZTd4iRwSCEHg&quot; alt=&quot;Fichier:Tesla T symbol.svg — Wikipédia&quot;&gt;&lt;/b&gt;" link="&lt;b style=&quot;font-weight:normal;&quot; id=&quot;docs-internal-guid-0e3050be-7fff-231c-c312-32665a609f63&quot;&gt;&lt;img width=&quot;62px;&quot; height=&quot;62px;&quot; src=&quot;https://lh7-rt.googleusercontent.com/slidesz/AGV_vUeJueVCOZ5JnHkxYxPvzbkSMP7hjLwl2-Y8B2QmJCEdWRNBiArMX4JWd2kuLswTsISkdK6dD8SNYzqdat8-RmzDeEhMzpYpoH0GddjoHM3OktdNluofBbSYxSJJ-b1Tv8vugKUpqw8MRivs7_2FN-Caxf9vN109=s2048?key=gycgC9ebE3ZTd4iRwSCEHg&quot; alt=&quot;Fichier:Tesla T symbol.svg — Wikipédia&quot;&gt;&lt;/b&gt;" id="5U1iyvmNS1lf5_3QRp3p-1">
          <mxCell style="text;whiteSpace=wrap;html=1;" vertex="1" parent="1">
            <mxGeometry x="341" y="166" width="72.41" height="70" as="geometry" />
          </mxCell>
        </UserObject>
        <UserObject label="&lt;b style=&quot;font-weight:normal;&quot; id=&quot;docs-internal-guid-42e0bf69-7fff-99de-fb22-aab5623dedfd&quot;&gt;&lt;img width=&quot;67px;&quot; height=&quot;67px;&quot; src=&quot;https://lh7-rt.googleusercontent.com/slidesz/AGV_vUcdpf13KNpMNdVT_Bx-F6uNthuCsPpj7A1N7aBi_2KkVad7rMfk3gTILEzCj6Rk5AzQ-x2dPrh92f93zrCmghEROKukp1Y3oI7fy69w84hQnA4-xPv9lXLZ3D_sUHhHOwCSix12zNp_DzJX8bdAnB0Ea7Zfj8RY=s2048?key=gycgC9ebE3ZTd4iRwSCEHg&quot; alt=&quot;File:Cloudflare Logo.png - Wikipedia&quot;&gt;&lt;/b&gt;" link="&lt;b style=&quot;font-weight:normal;&quot; id=&quot;docs-internal-guid-42e0bf69-7fff-99de-fb22-aab5623dedfd&quot;&gt;&lt;img width=&quot;67px;&quot; height=&quot;67px;&quot; src=&quot;https://lh7-rt.googleusercontent.com/slidesz/AGV_vUcdpf13KNpMNdVT_Bx-F6uNthuCsPpj7A1N7aBi_2KkVad7rMfk3gTILEzCj6Rk5AzQ-x2dPrh92f93zrCmghEROKukp1Y3oI7fy69w84hQnA4-xPv9lXLZ3D_sUHhHOwCSix12zNp_DzJX8bdAnB0Ea7Zfj8RY=s2048?key=gycgC9ebE3ZTd4iRwSCEHg&quot; alt=&quot;File:Cloudflare Logo.png - Wikipedia&quot;&gt;&lt;/b&gt;" id="5U1iyvmNS1lf5_3QRp3p-2">
          <mxCell style="text;whiteSpace=wrap;html=1;" vertex="1" parent="1">
            <mxGeometry x="340.9957142857142" y="242.99551020408157" width="95" height="92" as="geometry" />
          </mxCell>
        </UserObject>
        <UserObject label="&lt;b style=&quot;font-weight:normal;&quot; id=&quot;docs-internal-guid-cb5a8d01-7fff-bbf1-96bf-cebdd5db0447&quot;&gt;&lt;img width=&quot;69px;&quot; height=&quot;67px;&quot; src=&quot;https://lh7-rt.googleusercontent.com/slidesz/AGV_vUeGnqFfp8V0fPWBMVn8MMKc44zTY7TNvO41IoPIUoiz7Lbl7GZZh7iFwetRarElmTCLgAJq7NyFiODKhZDc5Vlx_jjuoN_wh38-er-yglFozKxnBq8MmyBaJ7W0T0U2ugSTpcHRCifjr49CrYWn5ouaKiLGhOjm=s2048?key=gycgC9ebE3ZTd4iRwSCEHg&quot;&gt;&lt;/b&gt;" link="&lt;b style=&quot;font-weight:normal;&quot; id=&quot;docs-internal-guid-cb5a8d01-7fff-bbf1-96bf-cebdd5db0447&quot;&gt;&lt;img width=&quot;69px;&quot; height=&quot;67px;&quot; src=&quot;https://lh7-rt.googleusercontent.com/slidesz/AGV_vUeGnqFfp8V0fPWBMVn8MMKc44zTY7TNvO41IoPIUoiz7Lbl7GZZh7iFwetRarElmTCLgAJq7NyFiODKhZDc5Vlx_jjuoN_wh38-er-yglFozKxnBq8MmyBaJ7W0T0U2ugSTpcHRCifjr49CrYWn5ouaKiLGhOjm=s2048?key=gycgC9ebE3ZTd4iRwSCEHg&quot;&gt;&lt;/b&gt;" id="5U1iyvmNS1lf5_3QRp3p-3">
          <mxCell style="text;whiteSpace=wrap;html=1;" vertex="1" parent="1">
            <mxGeometry x="338.9924489795918" y="332.0020408163265" width="97" height="92" as="geometry" />
          </mxCell>
        </UserObject>
      </root>
    </mxGraphModel>
  </diagram>
</mxfile>
